{"title":"The Beatles Eight Days A Week 2016 720p x265 HEVC AAC.mp4","uid":15949972,"size":1389428219,"categoryP":"video","categoryS":"movies","magnet":"?xt=urn:btih:585eef8b447c9cb224b821d7e05c44e7d566fd09&amp;dn=The+Beatles+Eight+Days+A+Week+2016+720p+x265+HEVC+AAC.mp4&amp;tr=udp%3A%2F%2Ftracker.leechers-paradise.org%3A6969&amp;tr=udp%3A%2F%2Fzer0day.ch%3A1337&amp;tr=udp%3A%2F%2Fopen.demonii.com%3A1337&amp;tr=udp%3A%2F%2Ftracker.coppersurfer.tk%3A6969&amp;tr=udp%3A%2F%2Fexodus.desync.com%3A6969","seeders":1,"leechers":91,"uploader":"catminister","files":1,"time":1475553714,"description":"General\r\nComplete name                  : The Beatles Eight Days A Week 2016 720p x265 HEVC AAC.mp4\r\nFormat                         : MPEG-4\r\nFormat profile                 : Base Media / Version 2\r\nCodec ID                       : mp42\r\nFile size                      : 1.29 GiB\r\nDuration                       : 1h 45mn\r\nOverall bit rate mode          : Variable\r\nOverall bit rate               : 1 753 Kbps\r\nEncoded date                   : UTC 2016-10-03 14:08:22\r\nTagged date                    : UTC 2016-10-03 14:08:22\r\nWriting application            : HandBrake 0.10.5 2016021100\r\n\r\nVideo\r\nID                             : 1\r\nFormat                         : HEVC\r\nFormat/Info                    : High Efficiency Video Coding\r\nFormat profile                 :   @Main\r\nCodec ID                       : hev1\r\nCodec ID/Info                  : High Efficiency Video Coding\r\nDuration                       : 1h 45mn\r\nBit rate                       : 1 442 Kbps\r\nWidth                          : 1 280 pixels\r\nHeight                         : 720 pixels\r\nDisplay aspect ratio           : 16:9\r\nFrame rate mode                : Variable\r\nFrame rate                     : 23.976 fps\r\nMinimum frame rate             : 2.664 fps\r\nMaximum frame rate             : 24.006 fps\r\nColor space                    : YUV\r\nChroma subsampling             : 4:2:0\r\nBit depth                      : 8 bits\r\nBits/(Pixel*Frame)             : 0.065\r\nStream size                    : 1.06 GiB (82%)\r\nWriting library                : x265 1.9:[Windows][GCC 4.9.0][64 bit] 8bit\r\nEncoded date                   : UTC 2016-10-03 14:08:22\r\nTagged date                    : UTC 2016-10-03 14:08:22\r\nColor range                    : Limited\r\nColor primaries                : BT.709\r\nTransfer characteristics       : BT.709\r\nMatrix coefficients            : BT.709\r\n\r\nAudio\r\nID                             : 2\r\nFormat                         : AAC\r\nFormat/Info                    : Advanced Audio Codec\r\nFormat profile                 : LC\r\nCodec ID                       : 40\r\nDuration                       : 1h 45mn\r\nBit rate mode                  : Variable\r\nBit rate                       : 304 Kbps\r\nChannel(s)                     : 2 channels\r\nChannel positions              : Front: L R\r\nSampling rate                  : 48.0 KHz\r\nCompression mode               : Lossy\r\nStream size                    : 230 MiB (17%)\r\nTitle                          : Stereo / Stereo\r\nEncoded date                   : UTC 2016-10-03 14:08:22\r\nTagged date                    : UTC 2016-10-03 14:08:22","torrent":{"xt":"urn:btih:585eef8b447c9cb224b821d7e05c44e7d566fd09","amp;dn":"The+Beatles+Eight+Days+A+Week+2016+720p+x265+HEVC+AAC.mp4","amp;tr":["udp%3A%2F%2Ftracker.leechers-paradise.org%3A6969","udp%3A%2F%2Fzer0day.ch%3A1337","udp%3A%2F%2Fopen.demonii.com%3A1337","udp%3A%2F%2Ftracker.coppersurfer.tk%3A6969","udp%3A%2F%2Fexodus.desync.com%3A6969"],"infoHash":"585eef8b447c9cb224b821d7e05c44e7d566fd09","infoHashBuffer":{"type":"Buffer","data":[88,94,239,139,68,124,156,178,36,184,33,215,224,92,68,231,213,102,253,9]},"announce":[],"urlList":[]}}